<svg width="190" height="58" viewBox="0 0 190 58" fill="none" xmlns="http://www.w3.org/2000/svg">
<path d="M51.5743 17.554C50.5401 19.8186 49.6262 21.5036 48.8327 22.6092C48.0393 23.7147 47.2681 24.2719 46.5191 24.2808C46.0555 24.263 45.8237 23.8395 45.8237 23.0104C45.8237 22.1812 46.0555 20.7904 46.5191 18.8378C45.0748 21.8959 43.7999 23.6612 42.6943 24.1337C42.4714 24.2229 42.2575 24.2719 42.0524 24.2808C41.5888 24.263 41.357 23.8351 41.357 22.997C41.357 21.7399 41.7359 19.7517 42.4937 17.0324C43.2516 14.3132 43.8043 12.5033 44.152 11.6028C44.5087 10.6934 44.7226 10.1273 44.794 9.90439C44.9812 9.3962 45.2665 9.14656 45.6499 9.15547C46.0332 9.15547 46.2294 9.33824 46.2383 9.70379C46.2383 9.97125 46.1358 10.3725 45.9307 10.9074C44.2457 15.4009 43.2114 19.1187 42.8281 22.0609C42.9351 22.0519 43.0599 21.9717 43.2025 21.8201C44.6201 20.1707 46.1224 17.4871 47.7094 13.7693L48.7391 11.2952L48.8996 10.8806C49.069 10.4527 49.1894 10.1273 49.2607 9.90439C49.4479 9.3962 49.7332 9.14656 50.1166 9.15547C50.5 9.15547 50.6961 9.33824 50.705 9.70379C50.705 9.81969 50.6961 9.94897 50.6783 10.0916C50.6515 10.3413 50.5579 10.6488 50.3974 11.0144C50.237 11.3799 50.1523 11.5805 50.1433 11.6162C48.6009 15.86 47.6514 19.3416 47.2948 22.0609C47.4018 22.0519 47.5266 21.9717 47.6693 21.8201C49.0958 20.1707 50.6025 17.4827 52.1895 13.7559C52.2608 13.5955 52.5729 12.8465 53.1256 11.5092C53.6784 10.1629 54.0484 9.43632 54.2356 9.32933C54.2891 9.30258 54.4139 9.28921 54.6101 9.28921C54.8062 9.28029 54.9444 9.32933 55.0247 9.43632C55.1049 9.53439 55.145 9.69487 55.145 9.91776C55.145 10.1407 55.0692 10.4393 54.9177 10.8138C54.775 11.1793 54.6903 11.3978 54.6636 11.4691C54.6368 11.5315 54.2222 12.2715 53.4198 13.6891C52.6174 15.0977 52.0023 16.3861 51.5743 17.554ZM56.2149 17.447C56.3932 17.4203 56.7766 17.0369 57.365 16.2969C57.9534 15.5569 58.2477 14.9774 58.2477 14.5583C58.2477 14.4959 58.2254 14.4246 58.1808 14.3444C58.0025 14.5227 57.628 15.0309 57.0574 15.8689C56.4957 16.707 56.2149 17.233 56.2149 17.447ZM61.5375 19.4397C61.9833 18.9582 62.2329 18.8735 62.2864 19.1856C62.2864 19.3015 62.2151 19.4931 62.0725 19.7606C61.6356 20.5719 60.9669 21.4323 60.0664 22.3417C58.6399 23.786 57.3784 24.5082 56.2818 24.5082C55.7646 24.5082 55.3233 24.3611 54.9578 24.0669C54.2713 23.5052 53.928 22.5289 53.928 21.1381C53.928 20.3446 54.1688 19.2301 54.6502 17.7947C55.1406 16.3504 55.8895 15.0442 56.8969 13.8763C57.3427 13.3057 57.8063 13.0204 58.2878 13.0204C58.5196 13.0204 58.7603 13.0694 59.0099 13.1675C59.5984 13.4082 59.8926 13.7961 59.8926 14.331C59.8926 14.4112 59.8658 14.5405 59.8123 14.7188C59.4468 15.441 58.8584 16.2746 58.0471 17.2197C57.2357 18.1647 56.411 18.9181 55.573 19.4798C55.2877 20.514 55.145 21.3209 55.145 21.9004C55.145 22.4799 55.1584 22.8499 55.1851 23.0104C55.2654 23.3848 55.564 23.572 56.0812 23.572C56.5983 23.572 57.1956 23.3358 57.8732 22.8633C58.5508 22.3818 59.2729 21.7488 60.0397 20.9642C60.8064 20.1797 61.2388 19.7383 61.3369 19.6403C61.4439 19.5422 61.5108 19.4753 61.5375 19.4397ZM61.3369 24.8292C61.3369 25.5513 61.4796 26.2467 61.7649 26.9154C62.2463 28.0388 62.9596 28.6005 63.9046 28.6005C64.6446 28.6005 65.2643 28.4088 65.7635 28.0254C66.2717 27.651 66.8691 27.0313 67.5556 26.1665C67.7695 25.8901 67.9924 25.7965 68.2242 25.8857C68.4561 25.9659 68.572 26.1487 68.572 26.434C68.572 27.272 68.0727 27.9897 67.0741 28.5871C66.0845 29.1844 65.1394 29.4831 64.239 29.4831C61.5732 29.4831 60.2403 27.905 60.2403 24.7489C60.2403 23.367 60.4988 21.9271 61.016 20.4293L61.1497 20.0415C62.8169 15.2627 64.1097 12.0575 65.028 10.426C65.6699 9.24909 66.3653 8.66066 67.1142 8.66066C68.1752 8.66957 68.7146 9.05294 68.7324 9.81077C68.7324 10.2833 68.4159 11.0322 67.7829 12.0575C67.1499 13.0739 65.8794 14.8526 63.9715 17.3935C63.49 17.9374 63.0621 18.5525 62.6876 19.2391C61.7872 20.933 61.3369 22.7964 61.3369 24.8292ZM63.7976 15.8957C63.9314 15.8868 64.5465 14.9239 65.6432 13.007C66.7487 11.0813 67.297 10.0872 67.2881 10.0247C67.2792 9.95342 67.2435 9.91776 67.1811 9.91776C67.1187 9.90885 67.0786 9.9133 67.0608 9.93113C66.7665 10.1094 66.1424 11.059 65.1885 12.7797C64.2434 14.4915 63.7709 15.5079 63.7709 15.8288C63.7709 15.8556 63.7798 15.8779 63.7976 15.8957ZM70.9123 13.4751C72.0535 13.4751 72.6241 13.8451 72.6241 14.5851C72.5884 14.9685 72.2809 15.7798 71.7013 17.0191C71.1218 18.2494 70.6939 18.8646 70.4175 18.8646C70.2838 18.8378 70.1991 18.7665 70.1634 18.6506C70.1634 18.5793 70.208 18.4946 70.2971 18.3965C70.3863 18.2985 70.4933 18.1201 70.6181 17.8616C71.0104 17.077 71.2065 16.4173 71.2065 15.8823C71.2065 15.3474 71.1307 14.9729 70.9792 14.7589C70.7385 14.7679 70.4576 15.013 70.1366 15.4945C69.5571 16.395 69.0534 17.5718 68.6254 19.0251C68.2064 20.4783 67.9969 21.6284 67.9969 22.4754C67.9969 22.6448 68.0014 22.7786 68.0103 22.8766C68.0459 23.4829 68.3 23.786 68.7726 23.786C70.1991 23.786 72.1293 22.5468 74.5633 20.0682C75.0536 19.5778 75.3255 19.4709 75.379 19.7472C75.379 19.8988 75.2899 20.1217 75.1116 20.4159C74.648 21.1827 73.9302 21.9895 72.9584 22.8365C71.523 24.0936 70.2927 24.7222 69.2674 24.7222C68.5898 24.7133 68.0459 24.4592 67.6358 23.9599C67.2257 23.4695 66.9671 22.9747 66.8602 22.4754C66.6016 21.2718 66.7576 20.0548 67.3282 18.8245C67.3461 18.7888 67.4352 18.5971 67.5957 18.2494C68.5407 16.1542 69.41 14.6609 70.2035 13.7693C70.3818 13.5821 70.6181 13.484 70.9123 13.4751ZM79.2038 13.9699C79.6675 13.9699 80.2826 13.8496 81.0494 13.6088C81.825 13.3681 82.36 13.2611 82.6542 13.2879C82.9573 13.3146 83.1579 13.435 83.256 13.649C83.363 13.8629 83.3496 14.0724 83.2159 14.2775C83.0821 14.4736 82.7968 14.5851 82.36 14.6118H80.2603C79.8324 14.6118 79.5605 14.75 79.4446 15.0264C79.4267 15.0442 79.342 15.5034 79.1905 16.4039C79.0478 17.3044 78.9631 17.817 78.9364 17.9418C78.4995 20.0727 77.8932 21.6953 77.1176 22.8098L77.1042 22.8231C76.3018 23.9822 75.6643 24.5617 75.1918 24.5617C74.6034 24.5349 74.2869 24.1337 74.2423 23.3581C74.2869 22.3595 74.7193 20.6031 75.5395 18.0889C76.3598 15.5658 77.0418 13.9432 77.5857 13.221C77.7372 13.0159 77.9066 12.9134 78.0938 12.9134C78.29 12.9134 78.4148 12.9179 78.4683 12.9268C78.6466 12.9624 78.7358 13.1452 78.7358 13.4751C78.7447 13.7961 78.9007 13.961 79.2038 13.9699ZM78.2677 14.6118C77.8932 14.6118 77.3494 15.7263 76.6361 17.9552C75.9229 20.1841 75.5573 21.4635 75.5395 21.7934C75.5306 22.1143 75.5618 22.2748 75.6331 22.2748C75.963 22.2748 76.5336 21.4724 77.3449 19.8676C78.1563 18.2539 78.5619 16.872 78.5619 15.7218C78.5173 15.0442 78.4193 14.6742 78.2677 14.6118ZM84.0317 14.2641L84.2189 14.2374C84.6825 14.2463 84.9098 14.3756 84.9009 14.6252C84.892 14.7322 84.8653 14.8436 84.8207 14.9596C84.7761 15.0665 84.6245 15.3964 84.366 15.9492C84.045 16.6357 83.9158 17.1082 83.9782 17.3668V17.447L84.9678 15.9492C85.6097 14.9774 86.0867 14.273 86.3988 13.8362C86.4879 13.7203 86.6395 13.6623 86.8535 13.6623C87.0674 13.6623 87.2413 13.7203 87.375 13.8362C87.5177 13.9432 87.5935 14.0279 87.6024 14.0903L87.5221 14.2909C85.9173 18.187 85.1149 20.9687 85.1149 22.6359C85.1149 23.3313 85.3423 23.7459 85.797 23.8796C86.216 23.9955 86.6439 23.8707 87.0808 23.5052C88.3022 22.5245 89.3944 21.254 90.3573 19.6938L90.6114 19.2658C90.7005 19.1231 90.8387 19.0385 91.026 19.0117C91.2667 19.0117 91.3871 19.141 91.3871 19.3995C91.3871 19.8631 90.8744 20.6968 89.8491 21.9004C88.8327 23.0951 88.0749 23.8796 87.5756 24.2541C87.0853 24.6286 86.5459 24.8158 85.9574 24.8158C85.3779 24.8158 84.9009 24.4681 84.5265 23.7727C84.2679 23.2912 84.1386 22.734 84.1386 22.101C84.1386 21.468 84.2858 20.6254 84.58 19.5734C84.8831 18.5124 85.048 17.875 85.0748 17.661C85.1015 17.447 85.1104 17.3267 85.1015 17.2999C84.6825 17.8438 84.2011 18.606 83.6572 19.5868L82.5873 21.4724C82.4268 21.731 82.2664 21.8602 82.1059 21.8602C81.6601 21.8602 81.4372 21.5883 81.4372 21.0445C81.4372 20.7948 81.6111 20.3178 81.9588 19.6135C82.3065 18.9092 82.4803 18.401 82.4803 18.0889C82.3555 18.294 82.1415 18.6818 81.8384 19.2524C81.1787 20.4917 80.3094 21.6507 79.2306 22.7295C78.8205 23.1307 78.4371 23.3714 78.0805 23.4517C77.5545 23.3893 77.4029 23.2511 77.6258 23.0371C78.232 22.4487 78.7224 21.9227 79.0969 21.459C79.8814 20.4872 80.4431 19.3728 80.7819 18.1157C81.1296 16.8497 81.3258 16.1097 81.3703 15.8957C81.4149 15.6817 81.4996 15.334 81.6244 14.8526L81.8919 13.903C82.0256 13.3324 82.1772 12.9714 82.3466 12.8198C82.5249 12.6682 82.73 12.5925 82.9618 12.5925C83.3986 12.5925 83.6171 12.7351 83.6171 13.0204C83.6171 13.2879 83.2783 14.117 82.6007 15.5079C81.9231 16.8898 81.5085 17.7947 81.357 18.2227C81.4105 18.1603 81.5665 17.924 81.825 17.5139C82.0836 17.1038 82.2352 16.863 82.2797 16.7917C82.3332 16.7204 82.4313 16.5599 82.574 16.3103C83.3318 14.9462 83.8177 14.2641 84.0317 14.2641ZM92.8046 17.447C92.983 17.4203 93.3663 17.0369 93.9548 16.2969C94.5432 15.5569 94.8374 14.9774 94.8374 14.5583C94.8374 14.4959 94.8151 14.4246 94.7705 14.3444C94.5922 14.5227 94.2178 15.0309 93.6472 15.8689C93.0855 16.707 92.8046 17.233 92.8046 17.447ZM98.1273 19.4397C98.5731 18.9582 98.8227 18.8735 98.8762 19.1856C98.8762 19.3015 98.8049 19.4931 98.6622 19.7606C98.2253 20.5719 97.5567 21.4323 96.6562 22.3417C95.2297 23.786 93.9681 24.5082 92.8715 24.5082C92.3544 24.5082 91.9131 24.3611 91.5475 24.0669C90.861 23.5052 90.5178 22.5289 90.5178 21.1381C90.5178 20.3446 90.7585 19.2301 91.2399 17.7947C91.7303 16.3504 92.4792 15.0442 93.4867 13.8763C93.9325 13.3057 94.3961 13.0204 94.8775 13.0204C95.1093 13.0204 95.3501 13.0694 95.5997 13.1675C96.1881 13.4082 96.4823 13.7961 96.4823 14.331C96.4823 14.4112 96.4556 14.5405 96.4021 14.7188C96.0366 15.441 95.4481 16.2746 94.6368 17.2197C93.8255 18.1647 93.0008 18.9181 92.1627 19.4798C91.8774 20.514 91.7348 21.3209 91.7348 21.9004C91.7348 22.4799 91.7481 22.8499 91.7749 23.0104C91.8551 23.3848 92.1538 23.572 92.6709 23.572C93.188 23.572 93.7854 23.3358 94.4629 22.8633C95.1405 22.3818 95.8627 21.7488 96.6294 20.9642C97.3962 20.1797 97.8286 19.7383 97.9267 19.6403C98.0337 19.5422 98.1005 19.4753 98.1273 19.4397ZM110.003 26.1799C110.003 26.7416 109.807 27.0224 109.414 27.0224C109.2 27.0224 109.009 26.9511 108.839 26.8084C108.438 26.4607 108.238 25.9169 108.238 25.1769C108.238 24.4458 108.287 23.6969 108.385 22.9301C108.492 22.1634 108.804 20.7725 109.321 18.7576C108.501 18.8557 107.877 18.9136 107.449 18.9315C106.031 21.3119 104.569 23.3804 103.062 25.1367C102.946 25.2437 102.781 25.2928 102.567 25.2839C102.344 25.2839 102.224 25.2125 102.206 25.0699C102.206 24.9183 102.335 24.6508 102.594 24.2675C102.853 23.8841 103.004 23.6657 103.049 23.6122L106.031 18.9315C104.667 18.9225 103.829 18.8512 103.517 18.7175C103.205 18.5838 103.049 18.3698 103.049 18.0756C103.049 17.9418 103.147 17.8571 103.343 17.8215C104.805 17.6788 106 17.5718 106.927 17.5005L109.909 12.5523L110.765 8.87463C110.837 8.55367 111.01 8.39319 111.287 8.39319C111.563 8.38427 111.804 8.4021 112.009 8.44668C112.633 8.58933 112.945 8.87463 112.945 9.30258C112.945 9.36499 112.798 10.0515 112.504 11.3621C112.21 12.6727 111.706 14.6341 110.993 17.2464C111.733 17.2107 112.713 17.1929 113.935 17.1929C114.024 17.2018 114.126 17.291 114.242 17.4604C114.358 17.6209 114.421 17.8393 114.43 18.1157C114.421 18.3029 114.051 18.4099 113.32 18.4366C112.588 18.4545 111.692 18.5124 110.631 18.6105C109.669 22.3283 109.187 24.4592 109.187 25.003C109.205 25.1457 109.343 25.3418 109.602 25.5914C109.86 25.7965 109.994 25.9926 110.003 26.1799ZM108.585 16.9121L108.318 17.4069L109.682 17.3133C109.851 16.5554 109.976 15.8957 110.056 15.334C110.03 15.0933 109.825 15.2092 109.441 15.6817C109.067 16.1453 108.781 16.5554 108.585 16.9121ZM115.433 21.8602C115.441 22.1545 115.539 22.3105 115.727 22.3283C115.86 22.3283 116.025 22.2347 116.222 22.0475C116.819 21.468 117.479 20.3312 118.201 18.6372C118.932 16.9433 119.297 15.8288 119.297 15.2939C119.289 15.1512 119.213 15.0665 119.07 15.0398C118.794 15.0398 118.522 15.1111 118.254 15.2538C117.381 15.7352 116.645 16.8942 116.048 18.7309C115.638 19.988 115.433 21.0311 115.433 21.8602ZM115.005 24.8158C114.425 24.8158 114.131 24.107 114.122 22.6894C114.122 22.0921 114.229 21.2362 114.443 20.1217C114.657 18.9983 114.991 17.9998 115.446 17.126C115.169 17.5005 114.755 18.138 114.202 19.0385C113.649 19.93 113.266 20.5363 113.052 20.8572V20.8706C112.802 21.2451 112.571 21.4323 112.357 21.4323C112.143 21.4234 112.027 21.3164 112.009 21.1113C112.009 20.9419 112.134 20.6566 112.383 20.2554C113.596 18.3653 114.835 15.9982 116.101 13.1541C117.376 10.3011 118.129 8.32632 118.361 7.2297C118.424 6.98006 118.66 6.85078 119.07 6.84187C119.204 6.84187 119.342 6.8597 119.485 6.89536C119.85 7.00235 120.033 7.1762 120.033 7.41693C120.033 7.49717 120.002 7.59078 119.939 7.69777C118.415 10.3279 117.496 12.6147 117.184 14.5583C117.817 14.1839 118.437 13.9922 119.043 13.9833C119.257 13.9833 119.453 14.019 119.632 14.0903C120.14 14.2864 120.394 14.6787 120.394 15.2671C120.394 15.6238 120.171 16.4529 119.725 17.7546C119.289 19.0474 118.562 20.5497 117.546 22.2615C116.538 23.9643 115.691 24.8158 115.005 24.8158ZM123.898 14.6118C123.452 14.6832 122.877 15.7976 122.173 17.9552C121.468 20.1128 121.116 21.3877 121.116 21.78C121.116 22.1723 121.152 22.3684 121.223 22.3684C121.598 22.3684 122.182 21.566 122.975 19.9612C123.769 18.3475 124.165 16.872 124.165 15.5346C124.165 14.9283 124.076 14.6208 123.898 14.6118ZM123.684 12.9535C123.934 12.9535 124.148 13.0249 124.326 13.1675C124.638 13.435 124.794 13.9521 124.794 14.7188C124.794 18.2227 124.17 20.8483 122.922 22.5958L122.734 22.8766C121.959 24 121.335 24.5617 120.862 24.5617C120.283 24.4993 119.948 24.0758 119.859 23.2912C119.859 22.6404 120.122 21.3209 120.648 19.3327C121.183 17.3445 121.794 15.6238 122.48 14.1705C122.873 13.3681 123.274 12.9624 123.684 12.9535ZM132.069 15.2671C130.643 15.5079 129.399 16.444 128.338 18.0756C127.304 19.6625 126.76 21.2317 126.706 22.783C128.748 20.0905 130.536 17.5852 132.069 15.2671ZM131.454 14.1304L132.243 14.2374C132.368 14.2374 132.497 14.1661 132.631 14.0234C132.773 13.8808 132.952 13.8094 133.166 13.8094C133.389 13.8094 133.562 13.8674 133.687 13.9833C133.821 14.0992 133.888 14.2017 133.888 14.2909C133.888 14.3711 133.843 14.5093 133.754 14.7055C133.665 14.9016 133.611 15.0309 133.594 15.0933C132.408 18.8111 131.815 21.1827 131.815 22.208C131.824 22.5646 131.904 22.7474 132.056 22.7563C132.6 22.7563 133.451 22.043 134.61 20.6165C135.386 19.6625 135.885 18.9627 136.108 18.5169C136.34 18.0711 136.522 17.8348 136.656 17.8081C136.683 17.8081 136.705 17.8036 136.723 17.7947C136.884 17.8126 136.968 17.9062 136.977 18.0756C136.977 18.3965 136.607 19.1187 135.867 20.2421C134.289 22.6493 132.925 23.8529 131.775 23.8529C130.946 23.8529 130.531 23.2734 130.531 22.1143C130.531 21.5616 130.643 20.8751 130.865 20.0548C131.088 19.2257 131.222 18.7086 131.267 18.5035C131.062 18.771 130.375 19.7428 129.207 21.4189C128.039 23.0951 127.201 24.0847 126.693 24.3878C126.532 24.477 126.394 24.526 126.278 24.5349C125.77 24.5349 125.4 24.3343 125.168 23.9331C125.061 23.737 125.008 23.4561 125.008 23.0906C124.999 22.7161 125.271 21.8602 125.824 20.5229C126.715 18.3653 127.727 16.7026 128.859 15.5346C129.751 14.6252 130.616 14.1571 131.454 14.1304ZM140.655 15.5881L140.628 15.762L140.601 15.9224C140.601 16.1364 140.289 16.9923 139.665 18.4901C139.032 19.988 138.72 21.0489 138.729 21.673C138.747 22.734 139.005 23.2689 139.505 23.2778C140.004 23.2778 140.735 22.7206 141.698 21.6062C142.857 20.2688 143.566 19.2613 143.824 18.5838C144.083 17.9151 144.283 17.5807 144.426 17.5807C144.542 17.5897 144.604 17.7145 144.613 17.9552C144.613 18.187 144.587 18.3653 144.533 18.4901L144.399 18.8512C144.016 19.8319 143.414 20.8528 142.594 21.9137C141.408 23.474 140.352 24.2541 139.424 24.2541C139.13 24.2541 138.863 24.1783 138.622 24.0267C138.016 23.6434 137.713 22.9212 137.713 21.8602C137.713 21.5125 137.788 20.9776 137.94 20.2554C138.101 19.5333 138.176 19.1454 138.167 19.0919C138.167 19.0295 138.087 18.9627 137.927 18.8913C137.606 18.7487 137.392 18.7309 137.285 18.8378C137.196 18.9627 136.799 19.9256 136.094 21.7265C135.399 23.5275 134.922 24.428 134.664 24.428C134.583 24.428 134.432 24.3745 134.209 24.2675C133.977 24.1605 133.861 24.0134 133.861 23.8261C133.861 23.7905 133.977 23.5186 134.209 23.0104L134.944 21.3119C135.461 20.1172 136.068 18.5258 136.763 16.5376L138.542 11.5092C138.586 11.3844 138.729 11.3175 138.97 11.3086L139.317 11.2952C139.745 11.2952 139.959 11.4512 139.959 11.7633C139.959 11.9149 139.728 12.5835 139.264 13.7693C138.8 14.9551 138.502 15.8689 138.368 16.5109L138.328 16.9121C138.328 17.028 138.35 17.0948 138.395 17.1127C138.421 17.1038 138.533 16.9076 138.729 16.5242L139.077 15.8422C139.13 15.762 139.184 15.655 139.237 15.5212C139.433 15.1557 139.665 14.9729 139.933 14.9729C140.396 14.9818 140.637 15.1735 140.655 15.548V15.5881ZM155.794 6.48078C154.135 9.20897 152.446 13.1363 150.725 18.2628C150.725 18.2628 150.542 18.7799 150.177 19.8141C149.223 22.4442 148.741 24.1739 148.732 25.003C148.75 25.1457 148.893 25.3418 149.16 25.5914C149.419 25.7965 149.548 25.9926 149.548 26.1799C149.53 26.6881 149.339 26.9689 148.973 27.0224C148.75 27.0224 148.55 26.9422 148.371 26.7817C148.015 26.4518 147.836 25.9169 147.836 25.1769C147.836 23.8039 148.126 22.2971 148.706 20.6566C149.294 19.0072 149.642 17.9819 149.749 17.5807L148.371 19.3862C147.141 20.9999 146.022 22.2971 145.015 23.2778C144.934 23.3224 144.703 23.5052 144.319 23.8261C143.945 24.1382 143.49 24.2942 142.955 24.2942C142.803 24.2942 142.665 24.2675 142.54 24.214C142.104 24.0357 141.885 23.6345 141.885 23.0104C141.885 22.6894 142.179 21.994 142.768 20.9241C143.356 19.8542 144.364 18.4634 145.79 16.7516C147.226 15.0398 148.202 14.0769 148.719 13.8629C149.245 13.649 149.802 13.542 150.391 13.542C150.623 13.3815 150.868 13.1497 151.126 12.8465C151.385 12.5434 151.692 12.0174 152.049 11.2685L152.744 9.7974C152.896 9.49427 153.163 8.92367 153.547 8.0856C153.93 7.23861 154.233 6.59223 154.456 6.14645C155.375 4.30983 156.137 3.39152 156.743 3.39152C157.34 3.40043 157.648 3.69465 157.666 4.27417C157.666 4.71103 157.483 5.18802 157.118 5.70512C156.752 6.22223 156.311 6.48078 155.794 6.48078ZM149.214 15.7218C149.303 15.4544 149.348 15.2761 149.348 15.1869C149.348 15.0888 149.33 15.0309 149.294 15.013C149.232 15.013 148.955 15.2493 148.465 15.7218C146.521 17.5406 144.934 19.5065 143.704 21.6195C143.419 22.1188 143.276 22.4353 143.276 22.569C143.276 22.7028 143.307 22.7786 143.37 22.7964C143.45 22.7964 143.575 22.7384 143.744 22.6225C144.377 22.1946 145.349 21.2183 146.66 19.6938C147.97 18.1692 148.822 16.8452 149.214 15.7218Z" fill="black" fill-opacity="0.74"/>
<g filter="url(#filter0_d_88_2)">
<path d="M13.9912 35.0711C13.6669 34.4736 13.1975 34.0213 12.583 33.714C11.9855 33.3897 11.2771 33.2276 10.4578 33.2276C9.04105 33.2276 7.90593 33.697 7.05245 34.6358C6.19898 35.5575 5.77225 36.7951 5.77225 38.3484C5.77225 40.0041 6.21605 41.3014 7.10366 42.2402C8.00834 43.162 9.24588 43.6228 10.8163 43.6228C11.8916 43.6228 12.7963 43.3497 13.5303 42.8035C14.2814 42.2573 14.8276 41.4721 15.169 40.4479H9.61287V37.2218H19.1376V41.2929C18.8133 42.3853 18.2585 43.4009 17.4734 44.3398C16.7052 45.2786 15.7237 46.0382 14.5289 46.6185C13.334 47.1989 11.9855 47.4891 10.4834 47.4891C8.70819 47.4891 7.12073 47.105 5.72104 46.3369C4.33841 45.5517 3.2545 44.4678 2.46931 43.0852C1.70118 41.7025 1.31712 40.1236 1.31712 38.3484C1.31712 36.5732 1.70118 34.9942 2.46931 33.6116C3.2545 32.2119 4.33841 31.128 5.72104 30.3599C7.10366 29.5747 8.68259 29.1821 10.4578 29.1821C12.6086 29.1821 14.4179 29.7027 15.8859 30.7439C17.3709 31.7852 18.3524 33.2276 18.8304 35.0711H13.9912ZM25.9411 32.8947V36.5305H31.8045V39.9102H25.9411V43.8533H32.5726V47.3611H21.5628V29.3869H32.5726V32.8947H25.9411ZM51.4945 47.3611H47.1162L39.7934 36.2744V47.3611H35.4151V29.3869H39.7934L47.1162 40.5247V29.3869H51.4945V47.3611ZM59.0465 32.8947V36.5305H64.9099V39.9102H59.0465V43.8533H65.678V47.3611H54.6682V29.3869H65.678V32.8947H59.0465ZM77.6868 47.3611L73.9485 40.5759H72.8988V47.3611H68.5205V29.3869H75.8689C77.2856 29.3869 78.489 29.6344 79.479 30.1294C80.4861 30.6245 81.2372 31.3072 81.7322 32.1778C82.2272 33.0313 82.4747 33.9871 82.4747 35.0454C82.4747 36.2403 82.1333 37.3071 81.4506 38.246C80.7849 39.1848 79.7948 39.8505 78.4805 40.2431L82.6284 47.3611H77.6868ZM72.8988 37.4778H75.6128C76.4151 37.4778 77.0125 37.2815 77.4051 36.8889C77.8148 36.4964 78.0196 35.9416 78.0196 35.2247C78.0196 34.5419 77.8148 34.0042 77.4051 33.6116C77.0125 33.219 76.4151 33.0227 75.6128 33.0227H72.8988V37.4778ZM96.4122 44.1861H89.7039L88.6285 47.3611H84.0454L90.5489 29.3869H95.6185L102.122 47.3611H97.4876L96.4122 44.1861ZM95.2856 40.8064L93.0581 34.2261L90.8561 40.8064H95.2856ZM108.48 43.9813H114.215V47.3611H104.101V29.3869H108.48V43.9813ZM126.107 43.9813H131.843V47.3611H121.729V29.3869H126.107V43.9813ZM138.233 29.3869V40.1407C138.233 41.2161 138.497 42.0439 139.026 42.6243C139.556 43.2046 140.332 43.4948 141.356 43.4948C142.38 43.4948 143.166 43.2046 143.712 42.6243C144.258 42.0439 144.531 41.2161 144.531 40.1407V29.3869H148.91V40.1151C148.91 41.7196 148.568 43.0766 147.885 44.1861C147.203 45.2957 146.281 46.1321 145.12 46.6953C143.976 47.2586 142.696 47.5403 141.28 47.5403C139.863 47.5403 138.591 47.2672 137.464 46.7209C136.355 46.1577 135.476 45.3213 134.827 44.2117C134.179 43.0852 133.854 41.7196 133.854 40.1151V29.3869H138.233ZM168.063 47.3611H163.685L156.362 36.2744V47.3611H151.984V29.3869H156.362L163.685 40.5247V29.3869H168.063V47.3611ZM182.426 44.1861H175.718L174.643 47.3611H170.059L176.563 29.3869H181.632L188.136 47.3611H183.502L182.426 44.1861ZM181.3 40.8064L179.072 34.2261L176.87 40.8064H181.3Z" fill="#2A9DF2"/>
</g>
<defs>
<filter id="filter0_d_88_2" x="0.0366858" y="29.1821" width="189.379" height="23.9058" filterUnits="userSpaceOnUse" color-interpolation-filters="sRGB">
<feFlood flood-opacity="0" result="BackgroundImageFix"/>
<feColorMatrix in="SourceAlpha" type="matrix" values="0 0 0 0 0 0 0 0 0 0 0 0 0 0 0 0 0 0 127 0" result="hardAlpha"/>
<feOffset dy="4.26736"/>
<feGaussianBlur stdDeviation="0.640104"/>
<feComposite in2="hardAlpha" operator="out"/>
<feColorMatrix type="matrix" values="0 0 0 0 0 0 0 0 0 0 0 0 0 0 0 0 0 0 0.12 0"/>
<feBlend mode="normal" in2="BackgroundImageFix" result="effect1_dropShadow_88_2"/>
<feBlend mode="normal" in="SourceGraphic" in2="effect1_dropShadow_88_2" result="shape"/>
</filter>
</defs>
</svg>
